<svg xmlns="http://www.w3.org/2000/svg" width="140" height="72" viewBox="0 0 140 72">
  <g fill="none" fill-rule="evenodd">
    <path fill="#FCB716" d="M40.8395924,50.3726635 C35.1321043,50.3726635 30.4888815,55.0152227 30.4888815,60.7227109 C30.4888815,66.4295355 35.1321043,71.0727583 40.8395924,71.0727583 C46.5470806,71.0727583 51.1896398,66.4295355 51.1896398,60.7227109 C51.1896398,55.0152227 46.5470806,50.3726635 40.8395924,50.3726635"/>
    <path fill="#EE363F" d="M11.9155261,50.3726635 C6.20803791,50.3726635 1.56547867,55.0152227 1.56547867,60.7227109 C1.56547867,66.4295355 6.20803791,71.0727583 11.9155261,71.0727583 C17.6223507,71.0727583 22.266237,66.4295355 22.266237,60.7227109 C22.266237,55.0152227 17.6223507,50.3726635 11.9155261,50.3726635"/>
    <path fill="#07AF56" d="M69.7637251,50.3726635 C64.0555735,50.3726635 59.4130142,55.0152227 59.4130142,60.7227109 C59.4130142,66.4295355 64.0555735,71.0727583 69.7637251,71.0727583 C75.4705498,71.0727583 80.1137725,66.4295355 80.1137725,60.7227109 C80.1137725,55.0152227 75.4705498,50.3726635 69.7637251,50.3726635"/>
    <path fill="#04A9DF" d="M127.61,50.3726635 C121.902512,50.3726635 117.259953,55.0152227 117.259953,60.7227109 C117.259953,66.4295355 121.902512,71.0727583 127.61,71.0727583 C133.317488,71.0727583 137.960047,66.4295355 137.960047,60.7227109 C137.960047,55.0152227 133.317488,50.3726635 127.61,50.3726635"/>
    <path fill="#A1479A" d="M98.6871943,50.373327 C92.9797062,50.373327 88.3358199,55.0158863 88.3358199,60.7227109 C88.3358199,66.4301991 92.9790427,71.0720948 98.6865308,71.0720948 C104.394019,71.0720948 109.036578,66.4301991 109.036578,60.7227109 C109.036578,55.0158863 104.394682,50.373327 98.6871943,50.373327"/>
    <path fill="#5A5B5B" d="M.000265402844 21.0451848C.000265402844 14.3338104 5.38727962 9.26727014 12.0522085 9.26727014 18.7622559 9.26727014 24.1034882 14.2886919 24.1034882 20.9994028L24.1034882 31.3162749C24.1034882 32.3659431 23.3736303 33.0964645 22.2775166 33.0964645 21.1362844 33.0964645 20.451545 32.3659431 20.451545 31.3162749L20.451545 28.3032891 20.2690806 28.3032891C18.8538199 30.722436 16.0232986 32.822436 11.8232986 32.822436 5.34149763 32.822436.000265402844 27.8010142.000265402844 21.0451848M20.543109 21.0451848C20.543109 16.2062275 16.8905024 12.5542844 12.0522085 12.5542844 7.21258768 12.5542844 3.56064455 16.2062275 3.56064455 21.0451848 3.56064455 25.8834787 7.21258768 29.5360853 12.0522085 29.5360853 16.8905024 29.5360853 20.543109 25.8834787 20.543109 21.0451848M33.5092986 40.4465972C32.5505308 39.9901043 32.0933744 39.168019 32.4589668 38.2099147 32.8245592 37.2047014 33.737545 36.794654 34.6956493 37.2511469 36.3398199 38.0267867 38.3933744 38.5748436 40.5842749 38.5748436 46.0177346 38.5748436 49.3040853 35.3336114 49.3040853 29.8099147L49.3040853 28.30309 49.1209573 28.30309C47.7056967 30.7229005 44.8765024 32.822237 40.6758389 32.822237 34.1933744 32.822237 28.8521422 27.8008152 28.8521422 21.0449858 28.8521422 14.3342749 34.2391564 9.26707109 40.9047488 9.26707109 47.6154597 9.26707109 52.9566919 14.2891564 52.9566919 20.9992038L52.9566919 29.5816682C52.9566919 36.9771185 48.2079716 41.9527583 40.4475924 41.9527583 38.0742275 41.9527583 35.7001991 41.4962654 33.5092986 40.4465972M49.3949858 21.0449858C49.3949858 16.2060284 45.7430427 12.5534218 40.9047488 12.5534218 36.0657915 12.5534218 32.4138483 16.2060284 32.4138483 21.0449858 32.4138483 25.8839431 36.0657915 29.5358863 40.9047488 29.5358863 45.7430427 29.5358863 49.3949858 25.8839431 49.3949858 21.0449858M57.7046161 21.0451848C57.7046161 14.3338104 63.0465118 9.26727014 69.7572227 9.26727014 76.4672701 9.26727014 81.8085024 14.3338104 81.8085024 21.0451848 81.8085024 27.7552322 76.4672701 32.822436 69.7572227 32.822436 63.0465118 32.822436 57.7046161 27.7552322 57.7046161 21.0451848M78.2481232 21.0451848C78.2481232 16.2062275 74.5955166 12.5542844 69.7572227 12.5542844 64.9176019 12.5542844 61.2656588 16.2062275 61.2656588 21.0451848 61.2656588 25.8834787 64.9176019 29.5360853 69.7572227 29.5360853 74.5955166 29.5360853 78.2481232 25.8834787 78.2481232 21.0451848M86.5574882 21.0451848C86.5574882 14.3338104 91.8522749 9.26727014 98.3805213 9.26727014 102.580521 9.26727014 105.411043 11.3672701 106.826303 13.7864171L107.008768 13.7864171 107.008768 1.78025592C107.008768.730587678 107.739289.0000663507109 108.834739.0000663507109 109.976635.0000663507109 110.660711.730587678 110.660711 1.78025592L110.660711 21.0903033C110.660711 27.8010142 105.319479 32.822436 98.6094313 32.822436 91.9445024 32.822436 86.5574882 27.7552322 86.5574882 21.0451848M107.100332 21.0451848C107.100332 16.2062275 103.447725 12.5542844 98.6094313 12.5542844 93.7698104 12.5542844 90.1178673 16.2062275 90.1178673 21.0451848 90.1178673 25.8834787 93.7698104 29.5360853 98.6094313 29.5360853 103.447725 29.5360853 107.100332 25.8834787 107.100332 21.0451848M115.40963 21.0451848C115.40963 14.3338104 120.796645 9.26727014 127.461573 9.26727014 134.172284 9.26727014 139.513517 14.2886919 139.513517 20.9994028L139.513517 31.3162749C139.513517 32.3659431 138.782995 33.0964645 137.687545 33.0964645 136.545649 33.0964645 135.86091 32.3659431 135.86091 31.3162749L135.86091 28.3032891 135.678445 28.3032891C134.263185 30.722436 131.433327 32.822436 127.233327 32.822436 120.750863 32.822436 115.40963 27.8010142 115.40963 21.0451848M135.952474 21.0451848C135.952474 16.2062275 132.300531 12.5542844 127.461573 12.5542844 122.622616 12.5542844 118.970673 16.2062275 118.970673 21.0451848 118.970673 25.8834787 122.622616 29.5360853 127.461573 29.5360853 132.300531 29.5360853 135.952474 25.8834787 135.952474 21.0451848"/>
  </g>
</svg>